<svg xmlns="http://www.w3.org/2000/svg" xmlns:xlink="http://www.w3.org/1999/xlink" width="500" zoomAndPan="magnify" viewBox="0 0 375 374.999991" height="500" preserveAspectRatio="xMidYMid meet" version="1.0"><defs><clipPath id="3735045391"><path d="M 8.9375 8.9375 L 366.0625 8.9375 L 366.0625 366.0625 L 8.9375 366.0625 Z M 8.9375 8.9375 " clip-rule="nonzero"/></clipPath><clipPath id="7531e64b38"><path d="M 187.5 8.9375 C 88.882812 8.9375 8.9375 88.882812 8.9375 187.5 C 8.9375 286.117188 88.882812 366.0625 187.5 366.0625 C 286.117188 366.0625 366.0625 286.117188 366.0625 187.5 C 366.0625 88.882812 286.117188 8.9375 187.5 8.9375 Z M 187.5 8.9375 " clip-rule="nonzero"/></clipPath><clipPath id="55c65b2b66"><path d="M 71.34375 233 L 292 233 L 292 296 L 71.34375 296 Z M 71.34375 233 " clip-rule="nonzero"/></clipPath></defs><g clip-path="url(#3735045391)"><g clip-path="url(#7531e64b38)"><path fill="#a6a182" d="M 8.9375 8.9375 L 366.0625 8.9375 L 366.0625 366.0625 L 8.9375 366.0625 Z M 8.9375 8.9375 " fill-opacity="1" fill-rule="nonzero"/></g></g><g clip-path="url(#55c65b2b66)"><path fill="#ffffff" d="M 77.972656 238.207031 L 71.34375 238.207031 L 140.40625 238.207031 C 138.703125 239.683594 137 241.160156 135.253906 242.636719 C 127.074219 249.570312 118.660156 256.238281 110.136719 262.605469 C 108.773438 263.625 107.335938 264.6875 105.820312 265.785156 C 102.332031 268.324219 99.417969 271.695312 97.636719 275.257812 C 94.300781 281.964844 94.605469 288.515625 98.46875 292.34375 C 102.332031 296.171875 108.886719 296.511719 115.59375 293.175781 C 119.15625 291.398438 122.488281 288.515625 125.066406 285.03125 C 126.125 283.59375 127.1875 282.152344 128.246094 280.714844 C 138.019531 267.605469 148.515625 254.875 159.578125 242.601562 C 160.902344 241.121094 162.269531 239.644531 163.632812 238.167969 L 213.945312 238.167969 C 214.019531 238.242188 214.09375 238.355469 214.171875 238.433594 C 226.75 252.035156 238.605469 266.242188 249.554688 280.941406 C 250.617188 282.378906 251.714844 283.820312 252.738281 285.257812 C 255.277344 288.746094 258.609375 291.585938 262.132812 293.367188 C 268.761719 296.664062 275.242188 296.359375 279.03125 292.570312 C 282.820312 288.78125 283.121094 282.304688 279.824219 275.675781 C 278.082031 272.152344 275.203125 268.816406 271.71875 266.277344 C 270.242188 265.179688 268.761719 264.121094 267.398438 263.097656 C 256.980469 255.328125 246.789062 247.109375 236.902344 238.472656 C 236.789062 238.394531 236.710938 238.28125 236.597656 238.207031 L 291.570312 238.207031 L 291.570312 233.773438 L 77.972656 233.773438 Z M 77.972656 238.207031 " fill-opacity="1" fill-rule="nonzero"/></g><path fill="#ffffff" d="M 210.570312 181.871094 L 215.003906 177.4375 L 222.089844 170.390625 C 226.105469 166.335938 231.789062 164.632812 237.203125 165.808594 C 244.023438 167.246094 251.675781 166.527344 259.40625 163.761719 C 267.285156 160.917969 274.863281 156.03125 281.265625 149.628906 C 299.679688 131.21875 303.65625 105.304688 290.167969 91.816406 C 276.679688 78.328125 250.730469 82.308594 232.355469 100.71875 C 225.992188 107.085938 221.105469 114.625 218.261719 122.464844 C 215.457031 130.15625 214.738281 137.808594 216.140625 144.589844 C 217.316406 150.234375 215.609375 155.996094 211.59375 159.972656 L 189.695312 181.871094 L 185.113281 181.871094 L 168.972656 165.730469 C 165.183594 161.941406 163.253906 156.789062 163.59375 151.601562 C 164.390625 139.855469 160.109375 128.339844 151.734375 120.003906 L 108.964844 80.109375 C 108.054688 79.238281 106.613281 79.277344 105.707031 80.148438 C 104.832031 81.019531 104.796875 82.460938 105.628906 83.367188 L 141.808594 123.527344 C 142.300781 124.09375 142.566406 124.816406 142.566406 125.574219 C 142.53125 126.332031 142.226562 127.050781 141.695312 127.582031 C 140.597656 128.679688 138.816406 128.71875 137.640625 127.65625 L 97.105469 90.644531 C 96.574219 90.148438 95.742188 90.1875 95.210938 90.679688 L 94.492188 91.398438 C 93.960938 91.929688 93.960938 92.765625 94.453125 93.292969 L 131.316406 133.679688 C 131.882812 134.285156 132.1875 135.082031 132.148438 135.914062 C 132.109375 136.75 131.808594 137.507812 131.203125 138.113281 L 131.125 138.1875 C 130.558594 138.757812 129.761719 139.097656 128.929688 139.136719 C 128.09375 139.171875 127.300781 138.871094 126.695312 138.300781 L 86.347656 101.402344 C 85.816406 100.910156 84.980469 100.910156 84.453125 101.441406 L 83.730469 102.160156 C 83.203125 102.691406 83.203125 103.523438 83.695312 104.054688 L 120.707031 144.589844 C 121.769531 145.765625 121.730469 147.546875 120.632812 148.644531 C 120.101562 149.175781 119.382812 149.476562 118.625 149.515625 C 117.867188 149.554688 117.148438 149.289062 116.578125 148.757812 L 76.457031 112.539062 C 75.546875 111.707031 74.109375 111.746094 73.238281 112.617188 C 72.328125 113.523438 72.328125 114.925781 73.160156 115.875 L 113.054688 158.683594 C 121.351562 166.980469 132.867188 171.300781 144.574219 170.503906 C 149.765625 170.164062 154.917969 172.132812 158.707031 175.882812 L 164.691406 181.871094 L 77.972656 181.871094 L 77.972656 186.304688 L 291.570312 186.304688 L 291.570312 181.871094 Z M 210.570312 181.871094 " fill-opacity="1" fill-rule="nonzero"/></svg>