<svg xmlns="http://www.w3.org/2000/svg" xmlns:xlink="http://www.w3.org/1999/xlink" width="500" zoomAndPan="magnify" viewBox="0 0 375 374.999991" height="500" preserveAspectRatio="xMidYMid meet" version="1.0"><defs><clipPath id="c807f225d8"><path d="M 11.949219 1 L 362.949219 1 L 362.949219 375 L 11.949219 375 Z M 11.949219 1 " clip-rule="nonzero"/></clipPath></defs><g clip-path="url(#c807f225d8)"><path fill="#e9eaea" d="M 233.074219 261.59375 C 231.726562 246.699219 232.242188 236.308594 232.242188 222.699219 C 238.988281 219.148438 251.074219 196.585938 253.117188 177.535156 C 258.417969 177.101562 266.78125 171.925781 269.230469 151.5 C 270.550781 140.53125 265.300781 134.359375 262.105469 132.421875 C 270.734375 106.46875 288.660156 26.175781 228.953125 17.878906 C 222.808594 7.089844 207.074219 1.628906 186.628906 1.628906 C 104.824219 3.132812 94.957031 63.402344 112.890625 132.421875 C 109.703125 134.359375 104.453125 140.53125 105.765625 151.5 C 108.226562 171.925781 116.578125 177.101562 121.878906 177.535156 C 123.914062 196.585938 136.476562 219.148438 143.242188 222.699219 C 143.242188 236.308594 143.75 246.699219 142.402344 261.59375 C 126.214844 305.121094 16.996094 292.898438 11.949219 376.828125 L 363.042969 376.828125 C 358.007812 292.898438 249.261719 305.121094 233.074219 261.59375 Z M 233.074219 261.59375 " fill-opacity="1" fill-rule="nonzero"/></g></svg>